<?xml version="1.0" encoding="UTF-8"?>
<svg id="Calque_1" xmlns="http://www.w3.org/2000/svg" version="1.1" viewBox="0 0 10.24 10.24">
  <!-- Generator: Adobe Illustrator 29.2.1, SVG Export Plug-In . SVG Version: 2.1.0 Build 116)  -->
  <defs>
    <style>
      .st0 {
        fill: #ff5860;
        opacity: .29;
      }
    </style>
  </defs>
  <path class="st0" d="M3.4,3.83l-3.02.88c-.51.15-.5.88.02,1.01l3.06.76c.18.04.32.18.38.36l.88,3.02c.15.51.88.5,1.01-.02l.76-3.06c.04-.18.18-.32.36-.38l3.02-.88c.51-.15.5-.88-.02-1.01l-3.06-.76c-.18-.04-.32-.18-.38-.36l-.88-3.02c-.15-.51-.88-.5-1.01.02l-.76,3.06c-.04.18-.18.32-.36.38Z"/>
</svg>