<?xml version="1.0" encoding="UTF-8"?>
<svg id="Calque_1" data-name="Calque 1" xmlns="http://www.w3.org/2000/svg" viewBox="0 0 26.67 26.67">
  <defs>
    <style>
      .cls-1 {
        fill: #fff;
      }
    </style>
  </defs>
  <path class="cls-1" d="M8.86,9.98L.98,12.27c-1.33.39-1.3,2.29.05,2.63l7.97,1.97c.47.12.84.47.98.94l2.29,7.88c.39,1.33,2.29,1.3,2.63-.05l1.97-7.97c.12-.47.47-.84.94-.98l7.88-2.29c1.33-.39,1.3-2.29-.05-2.63l-7.97-1.97c-.47-.12-.84-.47-.98-.94L14.4.98c-.39-1.33-2.29-1.3-2.63.05l-1.97,7.97c-.12.47-.47.84-.94.98Z"/>
</svg>